<mxfile host="Electron" modified="2023-11-01T07:05:45.159Z" agent="Mozilla/5.0 (X11; Linux x86_64) AppleWebKit/537.36 (KHTML, like Gecko) draw.io/22.0.3 Chrome/114.0.5735.289 Electron/25.8.4 Safari/537.36" etag="scBKZo0ovPY6KrJN8PQe" version="22.0.3" type="device">
  <diagram name="第 1 页" id="qh5nWpfkVu7vhYwui-S6">
    <mxGraphModel dx="1410" dy="700" grid="1" gridSize="10" guides="1" tooltips="1" connect="1" arrows="1" fold="1" page="0" pageScale="1" pageWidth="827" pageHeight="1169" math="0" shadow="0">
      <root>
        <mxCell id="0" />
        <mxCell id="1" parent="0" />
        <mxCell id="oh-UirJO_mVHyATMcoVw-5" value="" style="rounded=0;whiteSpace=wrap;html=1;fontSize=16;fillColor=none;dashed=1;fontFamily=var(--font-sans);" parent="1" vertex="1">
          <mxGeometry x="-80" y="130" width="550" height="130" as="geometry" />
        </mxCell>
        <mxCell id="isLzUm6-Q8FK5u6dqU3K-3" value="" style="edgeStyle=none;curved=1;rounded=0;orthogonalLoop=1;jettySize=auto;html=1;fontSize=12;startSize=8;endSize=8;fontFamily=var(--font-sans);" parent="1" source="isLzUm6-Q8FK5u6dqU3K-1" target="isLzUm6-Q8FK5u6dqU3K-2" edge="1">
          <mxGeometry relative="1" as="geometry" />
        </mxCell>
        <mxCell id="isLzUm6-Q8FK5u6dqU3K-1" value="葡萄糖醛酸胆红素" style="text;html=1;align=center;verticalAlign=middle;resizable=0;points=[];autosize=1;strokeColor=none;fillColor=none;fontSize=16;fontFamily=var(--font-sans);" parent="1" vertex="1">
          <mxGeometry y="60" width="150" height="30" as="geometry" />
        </mxCell>
        <mxCell id="isLzUm6-Q8FK5u6dqU3K-5" value="" style="edgeStyle=none;curved=1;rounded=0;orthogonalLoop=1;jettySize=auto;html=1;fontSize=12;startSize=8;endSize=8;fontFamily=var(--font-sans);" parent="1" source="isLzUm6-Q8FK5u6dqU3K-2" target="isLzUm6-Q8FK5u6dqU3K-4" edge="1">
          <mxGeometry relative="1" as="geometry" />
        </mxCell>
        <mxCell id="oh-UirJO_mVHyATMcoVw-2" value="" style="edgeStyle=none;curved=1;rounded=0;orthogonalLoop=1;jettySize=auto;html=1;fontSize=12;startSize=8;endSize=8;fontFamily=var(--font-sans);" parent="1" source="isLzUm6-Q8FK5u6dqU3K-2" target="oh-UirJO_mVHyATMcoVw-1" edge="1">
          <mxGeometry relative="1" as="geometry" />
        </mxCell>
        <mxCell id="oh-UirJO_mVHyATMcoVw-3" value="肠黏膜重吸收" style="edgeLabel;html=1;align=center;verticalAlign=middle;resizable=0;points=[];fontSize=16;fontFamily=var(--font-sans);" parent="oh-UirJO_mVHyATMcoVw-2" vertex="1" connectable="0">
          <mxGeometry x="-0.3184" y="3" relative="1" as="geometry">
            <mxPoint x="15" y="3" as="offset" />
          </mxGeometry>
        </mxCell>
        <mxCell id="isLzUm6-Q8FK5u6dqU3K-2" value="&lt;b&gt;胆素原&lt;/b&gt;：d-尿胆素原、中胆素原、粪胆素原" style="text;html=1;align=center;verticalAlign=middle;resizable=0;points=[];autosize=1;strokeColor=none;fillColor=none;fontSize=16;fontFamily=var(--font-sans);" parent="1" vertex="1">
          <mxGeometry x="-90" y="220" width="330" height="30" as="geometry" />
        </mxCell>
        <mxCell id="isLzUm6-Q8FK5u6dqU3K-4" value="&lt;b&gt;胆素&lt;/b&gt;：d-尿胆素、i-尿胆素、粪胆素" style="text;html=1;align=center;verticalAlign=middle;resizable=0;points=[];autosize=1;strokeColor=none;fillColor=none;fontSize=16;fontFamily=var(--font-sans);" parent="1" vertex="1">
          <mxGeometry x="-60" y="324.83" width="270" height="30" as="geometry" />
        </mxCell>
        <mxCell id="isLzUm6-Q8FK5u6dqU3K-6" value="肠菌" style="text;html=1;align=center;verticalAlign=middle;resizable=0;points=[];autosize=1;strokeColor=none;fillColor=none;fontSize=16;fontFamily=var(--font-sans);" parent="1" vertex="1">
          <mxGeometry y="98" width="60" height="30" as="geometry" />
        </mxCell>
        <mxCell id="isLzUm6-Q8FK5u6dqU3K-7" value="回肠下段、结肠" style="text;html=1;align=center;verticalAlign=middle;resizable=0;points=[];autosize=1;strokeColor=none;fillColor=none;fontSize=16;fontFamily=var(--font-sans);" parent="1" vertex="1">
          <mxGeometry x="90" y="98" width="140" height="30" as="geometry" />
        </mxCell>
        <mxCell id="isLzUm6-Q8FK5u6dqU3K-8" value="空气氧化" style="text;html=1;align=center;verticalAlign=middle;resizable=0;points=[];autosize=1;strokeColor=none;fillColor=none;fontSize=16;fontFamily=var(--font-sans);" parent="1" vertex="1">
          <mxGeometry x="-30" y="280" width="90" height="30" as="geometry" />
        </mxCell>
        <mxCell id="isLzUm6-Q8FK5u6dqU3K-9" value="肠道下段" style="text;html=1;align=center;verticalAlign=middle;resizable=0;points=[];autosize=1;strokeColor=none;fillColor=none;fontSize=16;fontFamily=var(--font-sans);" parent="1" vertex="1">
          <mxGeometry x="100" y="280" width="90" height="30" as="geometry" />
        </mxCell>
        <mxCell id="oh-UirJO_mVHyATMcoVw-4" style="edgeStyle=orthogonalEdgeStyle;rounded=0;orthogonalLoop=1;jettySize=auto;html=1;fontSize=12;startSize=8;endSize=8;fontFamily=var(--font-sans);" parent="1" source="oh-UirJO_mVHyATMcoVw-1" target="isLzUm6-Q8FK5u6dqU3K-2" edge="1">
          <mxGeometry relative="1" as="geometry">
            <Array as="points">
              <mxPoint x="420" y="180" />
              <mxPoint x="160" y="180" />
            </Array>
          </mxGeometry>
        </mxCell>
        <mxCell id="oh-UirJO_mVHyATMcoVw-6" value="大部分随胆汁排入肠腔" style="edgeLabel;html=1;align=center;verticalAlign=middle;resizable=0;points=[];fontSize=16;fontFamily=var(--font-sans);" parent="oh-UirJO_mVHyATMcoVw-4" vertex="1" connectable="0">
          <mxGeometry x="0.1012" y="3" relative="1" as="geometry">
            <mxPoint x="17" as="offset" />
          </mxGeometry>
        </mxCell>
        <mxCell id="oh-UirJO_mVHyATMcoVw-8" value="" style="edgeStyle=none;curved=1;rounded=0;orthogonalLoop=1;jettySize=auto;html=1;fontSize=12;startSize=8;endSize=8;fontFamily=var(--font-sans);" parent="1" source="oh-UirJO_mVHyATMcoVw-1" target="oh-UirJO_mVHyATMcoVw-7" edge="1">
          <mxGeometry relative="1" as="geometry" />
        </mxCell>
        <mxCell id="oh-UirJO_mVHyATMcoVw-9" value="小部分进入体循环" style="edgeLabel;html=1;align=center;verticalAlign=middle;resizable=0;points=[];fontSize=16;fontFamily=var(--font-sans);" parent="oh-UirJO_mVHyATMcoVw-8" vertex="1" connectable="0">
          <mxGeometry x="-0.2193" y="1" relative="1" as="geometry">
            <mxPoint x="-1" y="11" as="offset" />
          </mxGeometry>
        </mxCell>
        <mxCell id="oh-UirJO_mVHyATMcoVw-1" value="肝" style="text;html=1;align=center;verticalAlign=middle;resizable=0;points=[];autosize=1;strokeColor=none;fillColor=none;fontSize=16;fontFamily=var(--font-sans);" parent="1" vertex="1">
          <mxGeometry x="400" y="220" width="40" height="30" as="geometry" />
        </mxCell>
        <mxCell id="oh-UirJO_mVHyATMcoVw-7" value="尿" style="text;html=1;align=center;verticalAlign=middle;resizable=0;points=[];autosize=1;strokeColor=none;fillColor=none;fontSize=16;fontFamily=var(--font-sans);" parent="1" vertex="1">
          <mxGeometry x="400" y="324.83" width="40" height="30" as="geometry" />
        </mxCell>
        <mxCell id="oh-UirJO_mVHyATMcoVw-10" value="胆素原的肝肠循环" style="rounded=0;whiteSpace=wrap;html=1;fontSize=16;fillColor=none;dashed=1;fontStyle=1;fontFamily=var(--font-sans);" parent="1" vertex="1">
          <mxGeometry x="310" y="130" width="160" height="30" as="geometry" />
        </mxCell>
      </root>
    </mxGraphModel>
  </diagram>
</mxfile>
